<svg width="215" height="57" viewBox="0 0 215 57" fill="none" xmlns="http://www.w3.org/2000/svg">
<g clip-path="url(#clip0_758_3459)">
<path d="M49.9639 41.591V29.5957H52.5116V41.591H49.9639Z" fill="black"/>
<path d="M66.2123 41.591H62.9742L57.7471 32.5166H57.6731C57.7772 34.1192 57.8293 35.2624 57.8293 35.9461V41.591H55.5527V29.5957H58.7662L63.985 38.5799H64.0426C63.9604 37.021 63.9193 35.9188 63.9193 35.2734V29.5957H66.2123L66.2123 41.591Z" fill="black"/>
<path d="M76.3211 38.2603C76.3211 39.3433 75.9294 40.1966 75.1459 40.8201C74.3679 41.4437 73.283 41.7555 71.8913 41.7555C70.6092 41.7555 69.475 41.5148 68.4888 41.0335V38.6705C69.2997 39.0315 69.9846 39.2859 70.5434 39.4335C71.1078 39.5812 71.6228 39.6551 72.0885 39.6551C72.6474 39.6551 73.0748 39.5484 73.3706 39.3351C73.672 39.1218 73.8227 38.8045 73.8227 38.3833C73.8227 38.1481 73.7569 37.9403 73.6254 37.7598C73.4939 37.5738 73.2994 37.3961 73.0419 37.2265C72.7898 37.0569 72.2721 36.7862 71.4886 36.4142C70.7544 36.0696 70.2037 35.7387 69.8366 35.4214C69.4695 35.1042 69.1764 34.735 68.9572 34.3138C68.7381 33.8926 68.6285 33.4004 68.6285 32.837C68.6285 31.7758 68.9874 30.9417 69.7051 30.3346C70.4284 29.7274 71.4256 29.4238 72.6967 29.4238C73.3213 29.4238 73.9158 29.4977 74.4802 29.6454C75.05 29.793 75.6445 30.0009 76.2636 30.2689L75.4417 32.2462C74.8007 31.9837 74.2692 31.8004 73.8473 31.6965C73.4309 31.5926 73.02 31.5407 72.6145 31.5407C72.1324 31.5407 71.7625 31.6528 71.505 31.877C71.2475 32.1013 71.1187 32.3939 71.1187 32.7549C71.1187 32.9792 71.1708 33.1761 71.2749 33.3457C71.379 33.5098 71.5434 33.6711 71.768 33.8298C71.9981 33.9829 72.5378 34.2619 73.3871 34.6666C74.5103 35.2027 75.2801 35.7414 75.6965 36.283C76.1129 36.819 76.3211 37.4781 76.3211 38.2603Z" fill="black"/>
<path d="M83.1016 41.591H80.5538V31.7125H77.291V29.5957H86.3644V31.7125H83.1016V41.591Z" fill="black"/>
<path d="M88.1968 41.591V29.5957H90.7446V41.591H88.1968Z" fill="black"/>
<path d="M98.4209 41.591H95.8731V31.7125H92.6104V29.5957H101.684V31.7125H98.4209V41.591Z" fill="black"/>
<path d="M113.296 29.5957V37.3574C113.296 38.2435 113.096 39.0202 112.696 39.6875C112.302 40.3548 111.729 40.8662 110.979 41.2218C110.228 41.5773 109.341 41.7551 108.316 41.7551C106.771 41.7551 105.571 41.3612 104.716 40.5736C103.861 39.7805 103.434 38.6975 103.434 37.3245V29.5957H105.974V36.9389C105.974 37.8633 106.16 38.5416 106.533 38.9737C106.905 39.4058 107.521 39.6219 108.382 39.6219C109.215 39.6219 109.817 39.4058 110.19 38.9737C110.568 38.5361 110.757 37.8524 110.757 36.9225V29.5957H113.296Z" fill="black"/>
<path d="M120.874 41.591H118.326V31.7125H115.063V29.5957H124.137V31.7125H120.874V41.591Z" fill="black"/>
<path d="M136.876 35.5772C136.876 37.5627 136.383 39.0887 135.397 40.1554C134.41 41.222 132.997 41.7553 131.156 41.7553C129.315 41.7553 127.901 41.222 126.915 40.1554C125.929 39.0887 125.436 37.5572 125.436 35.5608C125.436 33.5643 125.929 32.0409 126.915 30.9907C127.907 29.9351 129.326 29.4072 131.172 29.4072C133.019 29.4072 134.429 29.9378 135.405 30.9989C136.386 32.0601 136.876 33.5862 136.876 35.5772ZM128.107 35.5772C128.107 36.9173 128.361 37.9264 128.871 38.6047C129.381 39.2829 130.142 39.6221 131.156 39.6221C133.188 39.6221 134.205 38.2738 134.205 35.5772C134.205 32.8751 133.194 31.524 131.172 31.524C130.159 31.524 129.394 31.8659 128.879 32.5496C128.364 33.2279 128.107 34.2371 128.107 35.5772Z" fill="black"/>
<path d="M146.262 41.591H143.755V29.5957H150.642V31.6797H146.262V34.7729H150.338V36.8487H146.262V41.591Z" fill="black"/>
<path d="M159.913 41.591H152.993V29.5957H159.913V31.6797H155.54V34.3134H159.609V36.3974H155.54V39.4906H159.913V41.591Z" fill="black"/>
<path d="M172.397 35.4785C172.397 37.4531 171.833 38.9655 170.704 40.0157C169.581 41.0659 167.956 41.591 165.83 41.591H162.428V29.5957H166.2C168.162 29.5957 169.685 30.1126 170.77 31.1464C171.855 32.1802 172.397 33.6242 172.397 35.4785ZM169.751 35.5441C169.751 32.9678 168.611 31.6797 166.332 31.6797H164.975V39.4906H166.069C168.523 39.4906 169.751 38.1751 169.751 35.5441Z" fill="black"/>
<path d="M181.807 41.591H174.887V29.5957H181.807V31.6797H177.435V34.3134H181.503V36.3974H177.435V39.4906H181.807V41.591Z" fill="black"/>
<path d="M186.87 34.9206H187.692C188.497 34.9206 189.092 34.7865 189.475 34.5185C189.859 34.2505 190.051 33.8293 190.051 33.255C190.051 32.6862 189.853 32.2814 189.459 32.0407C189.07 31.8 188.464 31.6797 187.643 31.6797H186.87V34.9206ZM186.87 36.9881V41.591H184.322V29.5957H187.823C189.456 29.5957 190.664 29.8938 191.448 30.49C192.231 31.0808 192.623 31.9805 192.623 33.1894C192.623 33.895 192.429 34.524 192.04 35.0765C191.65 35.6234 191.1 36.0528 190.388 36.3646C192.196 39.0612 193.374 40.8033 193.922 41.591H191.094L188.226 36.9881H186.87Z" fill="black"/>
<path d="M202.757 41.5914L201.885 38.7361H197.505L196.634 41.5914H193.889L198.13 29.5469H201.244L205.502 41.5914H202.757ZM201.277 36.6029C200.472 34.0157 200.017 32.5525 199.913 32.2134C199.814 31.8743 199.743 31.6062 199.699 31.4093C199.518 32.1095 199.001 33.8407 198.146 36.6029H201.277Z" fill="black"/>
<path d="M207.005 41.591V29.5957H209.553V39.4906H214.427V41.591H207.005Z" fill="black"/>
<path d="M51.1107 52.2249V56.0719H50.0332V46.8213H52.5748C53.7114 46.8213 54.5502 47.0385 55.0911 47.473C55.6361 47.9075 55.9087 48.5613 55.9087 49.4345C55.9087 50.6578 55.2875 51.4846 54.0452 51.9149L56.5615 56.0719H55.2875L53.0438 52.2249H51.1107ZM51.1107 51.3011H52.5875C53.348 51.3011 53.9058 51.1513 54.2608 50.8518C54.6157 50.5481 54.7931 50.0947 54.7931 49.4914C54.7931 48.8798 54.6115 48.439 54.2481 48.169C53.8889 47.8991 53.31 47.7641 52.5114 47.7641H51.1107V51.3011Z" fill="black"/>
<path d="M58.9636 56.0716H57.9115V49.1368H58.9636V56.0716ZM57.8228 47.2576C57.8228 47.0171 57.8819 46.842 58.0002 46.7324C58.1186 46.6185 58.2664 46.5615 58.4439 46.5615C58.6129 46.5615 58.7587 46.6185 58.8812 46.7324C59.0038 46.8463 59.065 47.0213 59.065 47.2576C59.065 47.4938 59.0038 47.6709 58.8812 47.7891C58.7587 47.9029 58.6129 47.9599 58.4439 47.9599C58.2664 47.9599 58.1186 47.9029 58.0002 47.7891C57.8819 47.6709 57.8228 47.4938 57.8228 47.2576Z" fill="black"/>
<path d="M67.1779 52.5984C67.1779 53.7289 66.8927 54.6126 66.3223 55.2496C65.7518 55.8823 64.9638 56.1987 63.9581 56.1987C63.337 56.1987 62.7856 56.0531 62.3039 55.7621C61.8222 55.471 61.4503 55.0534 61.1884 54.5092C60.9264 53.9651 60.7954 53.3282 60.7954 52.5984C60.7954 51.4679 61.0785 50.5884 61.6447 49.9599C62.2109 49.3271 62.9969 49.0107 64.0025 49.0107C64.9744 49.0107 65.7455 49.3335 66.3159 49.9789C66.8906 50.6242 67.1779 51.4974 67.1779 52.5984ZM61.8856 52.5984C61.8856 53.4842 62.063 54.1592 62.418 54.6232C62.7729 55.0872 63.2947 55.3192 63.9835 55.3192C64.6722 55.3192 65.1941 55.0893 65.549 54.6295C65.9082 54.1655 66.0877 53.4884 66.0877 52.5984C66.0877 51.7168 65.9082 51.0482 65.549 50.5926C65.1941 50.1328 64.668 49.9029 63.9708 49.9029C63.2821 49.9029 62.7623 50.1286 62.4116 50.5799C62.0609 51.0313 61.8856 51.7041 61.8856 52.5984Z" fill="black"/>
<path d="M76.647 51.2252H79.797V55.724C79.3069 55.8801 78.8083 55.9982 78.3012 56.0783C77.7942 56.1585 77.2069 56.1985 76.5392 56.1985C75.1364 56.1985 74.0441 55.783 73.2624 54.952C72.4807 54.1168 72.0898 52.9484 72.0898 51.4467C72.0898 50.4849 72.2821 49.6433 72.6666 48.922C73.0554 48.1965 73.6131 47.6439 74.3399 47.2643C75.0667 46.8804 75.9181 46.6885 76.8942 46.6885C77.8829 46.6885 78.8041 46.8699 79.6576 47.2326L79.2393 48.1817C78.4026 47.8274 77.5977 47.6502 76.8245 47.6502C75.6963 47.6502 74.8153 47.9856 74.1814 48.6563C73.5476 49.327 73.2307 50.2571 73.2307 51.4467C73.2307 52.6953 73.5349 53.6422 74.1434 54.2876C74.7561 54.933 75.654 55.2558 76.8371 55.2558C77.4794 55.2558 78.1069 55.1819 78.7196 55.0343V52.1869H76.647V51.2252Z" fill="black"/>
<path d="M85.0387 49.0107C85.3472 49.0107 85.624 49.0361 85.869 49.0867L85.7232 50.0611C85.4359 49.9978 85.1824 49.9662 84.9626 49.9662C84.4007 49.9662 83.919 50.194 83.5176 50.6495C83.1204 51.1051 82.9218 51.6725 82.9218 52.3516V56.0721H81.8696V49.1373H82.738L82.8584 50.4217H82.9091C83.1669 49.9704 83.4775 49.6224 83.8408 49.3777C84.2042 49.1331 84.6035 49.0107 85.0387 49.0107Z" fill="black"/>
<path d="M91.4655 56.0722L91.2564 55.0851H91.2056C90.8591 55.5196 90.5127 55.8149 90.1662 55.9709C89.8239 56.1228 89.395 56.1987 88.8795 56.1987C88.1908 56.1987 87.6499 56.0215 87.257 55.6672C86.8682 55.3129 86.6738 54.8088 86.6738 54.155C86.6738 52.7545 87.7957 52.0205 90.0394 51.953L91.2183 51.9151V51.4848C91.2183 50.9406 91.1 50.5399 90.8634 50.2826C90.631 50.0211 90.257 49.8903 89.7415 49.8903C89.1626 49.8903 88.5077 50.0675 87.7767 50.4218L87.4534 49.6182C87.7957 49.4326 88.1696 49.2871 88.5753 49.1816C88.9852 49.0762 89.395 49.0234 89.8049 49.0234C90.6331 49.0234 91.2458 49.2069 91.643 49.5739C92.0444 49.9409 92.2451 50.5293 92.2451 51.3392V56.0722H91.4655ZM89.0887 55.3319C89.7437 55.3319 90.257 55.1526 90.6289 54.794C91.0049 54.4355 91.193 53.9335 91.193 53.2881V52.6617L90.1409 52.706C89.3042 52.7355 88.7 52.8662 88.3281 53.0983C87.9605 53.326 87.7767 53.6825 87.7767 54.1676C87.7767 54.5472 87.8908 54.8362 88.119 55.0344C88.3514 55.2327 88.6746 55.3319 89.0887 55.3319Z" fill="black"/>
<path d="M99.173 56.0721V51.586C99.173 51.0208 99.0441 50.5989 98.7864 50.3205C98.5286 50.0421 98.1251 49.9029 97.5758 49.9029C96.8491 49.9029 96.3167 50.0991 95.9786 50.4914C95.6406 50.8837 95.4716 51.5312 95.4716 52.4339V56.0721H94.4194V49.1373H95.2751L95.4462 50.0864H95.4969C95.7125 49.7447 96.0146 49.4811 96.4033 49.2955C96.792 49.1057 97.2251 49.0107 97.7026 49.0107C98.5393 49.0107 99.1689 49.2132 99.5914 49.6182C100.014 50.0189 100.225 50.6622 100.225 51.548V56.0721H99.173Z" fill="black"/>
<path d="M107.108 55.1419H107.051C106.565 55.8463 105.838 56.1985 104.871 56.1985C103.962 56.1985 103.254 55.8885 102.747 55.2684C102.245 54.6483 101.993 53.7667 101.993 52.6236C101.993 51.4804 102.247 50.5925 102.754 49.9597C103.261 49.327 103.966 49.0106 104.871 49.0106C105.813 49.0106 106.535 49.3523 107.038 50.0356H107.121L107.076 49.5358L107.051 49.0486V46.2266H108.103V56.072H107.248L107.108 55.1419ZM105.004 55.319C105.722 55.319 106.242 55.125 106.563 54.7369C106.888 54.3446 107.051 53.714 107.051 52.845V52.6236C107.051 51.6407 106.886 50.9405 106.557 50.5229C106.231 50.101 105.709 49.8901 104.991 49.8901C104.374 49.8901 103.901 50.1306 103.571 50.6114C103.246 51.0881 103.083 51.763 103.083 52.6362C103.083 53.5221 103.246 54.1906 103.571 54.642C103.897 55.0933 104.374 55.319 105.004 55.319Z" fill="black"/>
<path d="M113.275 56.1987C112.249 56.1987 111.437 55.8865 110.841 55.2622C110.25 54.6379 109.954 53.7711 109.954 52.6617C109.954 51.5438 110.229 50.6559 110.778 49.9978C111.332 49.3398 112.073 49.0107 113.003 49.0107C113.873 49.0107 114.562 49.2976 115.069 49.8713C115.576 50.4407 115.83 51.1937 115.83 52.1302V52.7945H111.044C111.065 53.6087 111.27 54.2266 111.659 54.6485C112.052 55.0703 112.603 55.2812 113.313 55.2812C114.061 55.2812 114.801 55.1251 115.532 54.813V55.7494C115.16 55.9097 114.807 56.0236 114.473 56.0911C114.144 56.1628 113.744 56.1987 113.275 56.1987ZM112.99 49.8903C112.432 49.8903 111.987 50.0717 111.653 50.4344C111.323 50.7972 111.129 51.2992 111.07 51.9404H114.701C114.701 51.2781 114.553 50.7719 114.258 50.4218C113.962 50.0674 113.539 49.8903 112.99 49.8903Z" fill="black"/>
<path d="M125.742 55.1419H125.685C125.199 55.8463 124.473 56.1985 123.505 56.1985C122.596 56.1985 121.889 55.8885 121.382 55.2684C120.879 54.6483 120.627 53.7667 120.627 52.6236C120.627 51.4804 120.881 50.5925 121.388 49.9597C121.895 49.327 122.601 49.0106 123.505 49.0106C124.447 49.0106 125.17 49.3523 125.673 50.0356H125.755L125.711 49.5358L125.685 49.0486V46.2266H126.737V56.072H125.882L125.742 55.1419ZM123.638 55.319C124.356 55.319 124.876 55.125 125.197 54.7369C125.523 54.3446 125.685 53.714 125.685 52.845V52.6236C125.685 51.6407 125.521 50.9405 125.191 50.5229C124.866 50.101 124.344 49.8901 123.625 49.8901C123.008 49.8901 122.535 50.1306 122.206 50.6114C121.88 51.0881 121.718 51.763 121.718 52.6362C121.718 53.5221 121.88 54.1906 122.206 54.642C122.531 55.0933 123.008 55.319 123.638 55.319Z" fill="black"/>
<path d="M134.971 52.5984C134.971 53.7289 134.686 54.6126 134.115 55.2496C133.545 55.8823 132.757 56.1987 131.751 56.1987C131.13 56.1987 130.579 56.0531 130.097 55.7621C129.615 55.471 129.243 55.0534 128.981 54.5092C128.719 53.9651 128.588 53.3282 128.588 52.5984C128.588 51.4679 128.871 50.5884 129.438 49.9599C130.004 49.3271 130.79 49.0107 131.795 49.0107C132.767 49.0107 133.538 49.3335 134.109 49.9789C134.684 50.6242 134.971 51.4974 134.971 52.5984ZM129.679 52.5984C129.679 53.4842 129.856 54.1592 130.211 54.6232C130.566 55.0872 131.088 55.3192 131.776 55.3192C132.465 55.3192 132.987 55.0893 133.342 54.6295C133.701 54.1655 133.881 53.4884 133.881 52.5984C133.881 51.7168 133.701 51.0482 133.342 50.5926C132.987 50.1328 132.461 49.9029 131.764 49.9029C131.075 49.9029 130.555 50.1286 130.205 50.5799C129.854 51.0313 129.679 51.7041 129.679 52.5984Z" fill="black"/>
<path d="M147.602 56.0719H146.373L141.309 48.3082H141.258C141.326 49.2194 141.359 50.0546 141.359 50.8139V56.0719H140.364V46.8213H141.581L146.633 54.5534H146.683C146.675 54.4395 146.656 54.0746 146.626 53.4587C146.597 52.8386 146.586 52.3957 146.595 52.13V46.8213H147.602L147.602 56.0719Z" fill="black"/>
<path d="M155.988 52.5984C155.988 53.7289 155.703 54.6126 155.132 55.2496C154.562 55.8823 153.774 56.1987 152.768 56.1987C152.147 56.1987 151.596 56.0531 151.114 55.7621C150.632 55.471 150.26 55.0534 149.998 54.5092C149.736 53.9651 149.605 53.3282 149.605 52.5984C149.605 51.4679 149.889 50.5884 150.455 49.9599C151.021 49.3271 151.807 49.0107 152.813 49.0107C153.784 49.0107 154.556 49.3335 155.126 49.9789C155.701 50.6242 155.988 51.4974 155.988 52.5984ZM150.696 52.5984C150.696 53.4842 150.873 54.1592 151.228 54.6232C151.583 55.0872 152.105 55.3192 152.794 55.3192C153.482 55.3192 154.004 55.0893 154.359 54.6295C154.718 54.1655 154.898 53.4884 154.898 52.5984C154.898 51.7168 154.718 51.0482 154.359 50.5926C154.004 50.1328 153.478 49.9029 152.781 49.9029C152.092 49.9029 151.572 50.1286 151.222 50.5799C150.871 51.0313 150.696 51.7041 150.696 52.5984Z" fill="black"/>
<path d="M161.021 49.0107C161.329 49.0107 161.606 49.0361 161.851 49.0867L161.705 50.0611C161.418 49.9978 161.164 49.9662 160.945 49.9662C160.383 49.9662 159.901 50.194 159.499 50.6495C159.102 51.1051 158.904 51.6725 158.904 52.3516V56.0721H157.852V49.1373H158.72L158.84 50.4217H158.891C159.149 49.9704 159.459 49.6224 159.823 49.3777C160.186 49.1331 160.585 49.0107 161.021 49.0107Z" fill="black"/>
<path d="M165.419 55.332C165.605 55.332 165.785 55.3193 165.958 55.294C166.131 55.2645 166.268 55.235 166.37 55.2054V56.009C166.256 56.0638 166.087 56.1081 165.863 56.1419C165.643 56.1798 165.444 56.1988 165.267 56.1988C163.923 56.1988 163.251 55.4922 163.251 54.0791V49.9537H162.256V49.4475L163.251 49.0109L163.695 47.5303H164.304V49.1374H166.319V49.9537H164.304V54.0348C164.304 54.4524 164.403 54.773 164.601 54.9966C164.8 55.2202 165.073 55.332 165.419 55.332Z" fill="black"/>
<path d="M170.699 56.1987C169.672 56.1987 168.861 55.8865 168.265 55.2622C167.674 54.6379 167.378 53.7711 167.378 52.6617C167.378 51.5438 167.653 50.6559 168.202 49.9978C168.755 49.3398 169.497 49.0107 170.427 49.0107C171.297 49.0107 171.986 49.2976 172.493 49.8713C173 50.4407 173.253 51.1937 173.253 52.1302V52.7945H168.468C168.489 53.6087 168.694 54.2266 169.083 54.6485C169.476 55.0703 170.027 55.2812 170.737 55.2812C171.485 55.2812 172.224 55.1251 172.955 54.813V55.7494C172.584 55.9097 172.231 56.0236 171.897 56.0911C171.567 56.1628 171.168 56.1987 170.699 56.1987ZM170.414 49.8903C169.856 49.8903 169.41 50.0717 169.077 50.4344C168.747 50.7972 168.553 51.2992 168.493 51.9404H172.125C172.125 51.2781 171.977 50.7719 171.682 50.4218C171.386 50.0674 170.963 49.8903 170.414 49.8903Z" fill="black"/>
<path d="M27.1 11.4996C27.1 12.1996 26.6 12.6996 25.9 12.6996H16.2C15.5 12.6996 15 12.1996 15 11.4996V1.79959C15 1.09959 15.5 0.599609 16.2 0.599609H25.9C26.6 0.599609 27.1 1.09959 27.1 1.79959V11.4996Z" fill="#359830"/>
<path d="M41.6 11.4996C41.6 12.1996 41.1 12.6996 40.4 12.6996H30.7C30 12.6996 29.5 12.1996 29.5 11.4996V1.79959C29.5 1.09959 30 0.599609 30.7 0.599609H40.4C41.1 0.599609 41.6 1.09959 41.6 1.79959V11.4996Z" fill="#359830"/>
<path d="M41.6 40.4C41.6 41.1 41.1 41.6 40.4 41.6H30.7C30 41.6 29.5 41.1 29.5 40.4V30.7C29.5 30 30 29.5 30.7 29.5H40.4C41.1 29.5 41.6 30 41.6 30.7V40.4Z" fill="#359830"/>
<path d="M12.6 25.9C12.6 26.6 12.1 27.1 11.4 27.1H1.70001C1.00001 27.1 0.5 26.6 0.5 25.9V16.2C0.5 15.5 1.00001 15 1.70001 15H11.4C12.1 15 12.6 15.5 12.6 16.2V25.9Z" fill="#359830"/>
<path d="M27.1 25.9C27.1 26.6 26.6 27.1 25.9 27.1H16.2C15.5 27.1 15 26.6 15 25.9V16.2C15 15.5 15.5 15 16.2 15H25.9C26.6 15 27.1 15.5 27.1 16.2V25.9Z" fill="#359830"/>
<path d="M12.6 40.4C12.6 41.1 12.1 41.6 11.4 41.6H1.70001C1.00001 41.6 0.5 41.1 0.5 40.4V30.7C0.5 30 1.00001 29.5 1.70001 29.5H11.4C12.1 29.5 12.6 30 12.6 30.7V40.4Z" fill="#359830"/>
<path d="M27.1 40.4C27.1 41.1 26.6 41.6 25.9 41.6H16.2C15.5 41.6 15 41.1 15 40.4V30.7C15 30 15.5 29.5 16.2 29.5H25.9C26.6 29.5 27.1 30 27.1 30.7V40.4Z" fill="#359830"/>
<path d="M12.6 54.9C12.6 55.6 12.1 56.1 11.4 56.1H1.70001C1.00001 56.1 0.5 55.6 0.5 54.9V45.2C0.5 44.5 1.00001 44 1.70001 44H11.4C12.1 44 12.6 44.5 12.6 45.2V54.9Z" fill="#359830"/>
<path d="M27.1 54.9C27.1 55.6 26.6 56.1 25.9 56.1H16.2C15.5 56.1 15 55.6 15 54.9V45.2C15 44.5 15.5 44 16.2 44H25.9C26.6 44 27.1 44.5 27.1 45.2V54.9Z" fill="#359830"/>
<path d="M13.2 6.60001C13.2 10.2 10.2 13.2 6.60001 13.2C3.00001 13.2 0 10.2 0 6.60001C0 3.00001 3.00001 0 6.60001 0C10.3 0 13.2 3.00001 13.2 6.60001Z" fill="#C90C0F"/>
</g>
<defs>
<clipPath id="clip0_758_3459">
<rect width="214.427" height="56.1984" fill="white"/>
</clipPath>
</defs>
</svg>
